<svg xmlns="http://www.w3.org/2000/svg" width="1443" height="300" viewBox="0 0 1443 300"><g><g><g/><g><g><path fill="#fee600" fill-opacity=".49" d="M62.968 251.995c168.383 2.886 240.618-1.65 248.617 21.44 7.998 23.088-118.33 27.541-249.441 25.315-131.113-2.227-241.774 0-243.836-21.357-2.06-21.358 146.037-27.047 244.66-25.398z"/></g><g><g><path fill="#472e38" d="M-185.155 209.44c-5.112-1.567-12.204-1.567-13.193.99-.99 2.556-.99 13.77 2.556 16.244 3.546 2.556 22.347-.495 22.347-.495l1.566-13.193z"/></g><g><path fill="#472e38" d="M-170.477 104.634s3.793 18.058 2.474 20.285c-1.237 2.226-31.747 1.072-31.747 1.072s-4.618-21.44-2.886-22.924c1.649-1.402 29.685-1.732 32.16 1.567z"/></g><g><path fill="#d3b608" d="M279.92 195.422s2.969-50.96-42.055-70.174c-45.023-19.213-426.07-8.163-442.316-2.226-16.244 5.937.742 69.431 8.824 75.286 8.081 6.02 475.547-2.886 475.547-2.886z"/></g><g><path fill="#5c6e94" d="M-204.533 123.105c.742-.248 2.144-.495 4.288-.825 38.014 25.315 170.197 78.997 374.369 69.844 63.577-2.886 64.236-.413 31.087 4.7-132.348 2.226-394.819 6.02-400.92 1.65-8.082-5.938-25.069-69.515-8.824-75.37z"/></g><g><path fill="#fee600" d="M173.63 120.136S87.21 22.668 30.395 8.65C-26.502-5.368-74.493-3.142-98.819 21.184-118.032 40.397-152.006 129.7-152.006 129.7z"/></g><g><path fill="#fee600" d="M276.21 190.31c10.39 0 22.923 6.679 19.213 14.018-3.711 7.421-15.503 6.68-14.76 13.276.741 6.68 13.275 11.05 7.42 14.76-5.936 3.71-463.012 0-471.176 0-8.164 0-1.484-8.163 2.226-11.792 3.71-3.71-32.49-25.81-20.697-25.81 20.697-.082 417.99-4.452 477.773-4.452z"/></g><g><path fill="#34405b" d="M-180.866 220.572c3.71-3.71-32.49-25.81-20.698-25.81 1.484 0 5.113 0 10.472-.082 3.464 7.751 36.283 10.637 78.915 17.811 40.735 6.762 332.313 13.111 397.952 12.617 3.05 2.886 5.607 5.195 2.226 7.256-5.937 3.71-463.013 0-471.176 0-8 0-1.402-8.081 2.309-11.792z"/></g><g><g><path fill="#533741" d="M228.96 177.198c29.768 32.242 5.937 81.8-33.644 78.502-29.768-2.474-52.527-31.994-42.797-61.845 9.73-30.18 54.919-39.91 76.44-16.657z"/></g><g><path fill="#472e38" d="M152.52 193.855c2.06-6.432 5.772-11.874 10.554-16.327-2.639 3.381-4.782 7.092-6.102 11.297-9.4 29.109 12.699 57.722 41.642 60.196 19.79 1.65 35.458-10.307 42.22-26.552-5.195 19.625-22.759 35.128-45.435 33.231-29.851-2.391-52.61-31.912-42.88-61.845z"/></g><g><path fill="#472e38" d="M219.23 187.093c20.862 22.594 4.122 57.31-23.584 55.001-20.863-1.732-36.777-22.429-30.016-43.374 6.845-21.192 38.427-27.954 53.6-11.627z"/></g><g><path fill="#cbe8f9" d="M216.26 189.98c18.225 19.708 3.63 50.053-20.614 47.991-18.224-1.484-32.16-19.543-26.222-37.849 6.02-18.388 33.643-24.408 46.837-10.142z"/></g><g><path fill="#a3c2d3" d="M169.506 200.204c.99-3.05 2.639-5.772 4.618-8.08-2.556 16.656 10.472 31.994 27.212 33.396 9.483.824 17.399-3.381 22.511-9.895-2.474 12.946-13.523 23.666-28.201 22.429-18.141-1.567-32.077-19.543-26.14-37.85z"/></g><g><g><g><path fill="#472e38" d="M195.234 171.096c0-1.072-.083-1.649.33-2.638.164-.33.66-.33.906-.083 1.567 1.567 1.485 5.03.66 6.927-.412 1.072-1.896.907-2.061-.248-.083-1.319.082-2.638.165-3.958z"/></g><g><path fill="#472e38" d="M195.234 244.403c.165-1.154 2.226-1.154 2.39 0 .248 1.65.578 3.546-.081 5.195-.413 1.155-1.815 1.155-2.227 0-.66-1.649-.33-3.546-.082-5.195z"/></g><g><path fill="#472e38" d="M168.599 183.218c-.742-.742-1.237-1.155-1.65-2.144-.164-.33.248-.742.578-.742 2.144 0 4.618 2.556 5.36 4.453.412 1.072-.66 1.979-1.65 1.237-.989-.825-1.73-1.897-2.638-2.804z"/></g><g><path fill="#472e38" d="M220.384 234.92c-.742-.99.742-2.39 1.732-1.731 1.319.99 2.886 2.144 3.628 3.71.495 1.072-.495 2.062-1.567 1.567-1.65-.577-2.721-2.144-3.793-3.546z"/></g><g><path fill="#472e38" d="M158.292 210.595c-1.072 0-1.65.082-2.64-.33-.33-.165-.33-.66-.082-.907 1.567-1.567 5.03-1.485 6.927-.66 1.072.412.907 1.897-.247 2.061-1.32.083-2.64-.164-3.958-.164z"/></g><g><path fill="#472e38" d="M231.516 210.512c-1.154-.165-1.154-2.226 0-2.391 1.65-.248 3.546-.577 5.195.082 1.154.413 1.154 1.814 0 2.227-1.65.66-3.546.33-5.195.082z"/></g><g><path fill="#472e38" d="M170.33 237.23c-.741.741-1.154 1.236-2.143 1.648-.33.165-.742-.247-.742-.577 0-2.144 2.556-4.618 4.452-5.36 1.072-.412 1.98.66 1.237 1.65-.742.906-1.814 1.649-2.803 2.638z"/></g><g><path fill="#472e38" d="M222.116 185.362c-.99.742-2.392-.742-1.732-1.732.99-1.32 2.144-2.886 3.71-3.628 1.073-.495 2.062.495 1.567 1.567-.66 1.649-2.226 2.803-3.545 3.793z"/></g></g><g><g><path fill="#472e38" d="M180.803 174.478c-.412-.99-.742-1.485-.66-2.557 0-.412.495-.577.825-.412 1.98.825 3.298 4.123 3.216 6.185 0 1.154-1.402 1.566-1.98.494-.659-1.237-.906-2.474-1.4-3.71z"/></g><g><path fill="#472e38" d="M208.675 242.177c-.248-1.154 1.566-1.979 2.226-.907.825 1.485 1.897 3.051 1.897 4.783 0 1.237-1.237 1.732-2.062.825-1.237-1.155-1.65-3.051-2.061-4.7z"/></g><g><path fill="#472e38" d="M160.765 195.752c-.99-.412-1.566-.577-2.309-1.32-.247-.247-.082-.741.248-.906 1.979-.825 5.195.577 6.68 2.061.824.825.082 2.062-1.073 1.732-1.237-.33-2.391-1.072-3.546-1.567z"/></g><g><path fill="#472e38" d="M228.383 223.954c-.99-.66-.248-2.474.907-2.227 1.649.412 3.545.825 4.782 2.062.825.824.33 2.144-.907 2.061-1.731 0-3.38-.99-4.782-1.896z"/></g><g><path fill="#472e38" d="M161.59 224.943c-.99.412-1.484.742-2.556.66-.413 0-.578-.495-.413-.825.825-1.979 4.123-3.298 6.185-3.216 1.154 0 1.567 1.402.495 1.98-1.155.659-2.474.906-3.711 1.4z"/></g><g><path fill="#472e38" d="M229.372 197.072c-1.154.247-1.979-1.567-.907-2.227 1.484-.824 3.051-1.896 4.783-1.896 1.237 0 1.731 1.237.824 2.061-1.154 1.237-3.05 1.732-4.7 2.062z"/></g><g><path fill="#472e38" d="M182.865 244.98c-.413.99-.578 1.567-1.32 2.31-.247.247-.742.082-.907-.248-.824-1.979.577-5.195 2.062-6.68.824-.824 2.061-.082 1.731 1.073-.33 1.237-.99 2.391-1.566 3.546z"/></g><g><path fill="#472e38" d="M211.066 177.446c-.66.99-2.474.247-2.226-.907.412-1.65.824-3.546 2.061-4.783.825-.824 2.144-.33 2.062.907 0 1.65-.99 3.299-1.897 4.783z"/></g></g></g><g><path fill="#6d4b57" d="M216.92 172.003c3.381.33 6.432 3.134 8.824 5.36 3.133 2.886 5.36 6.514 7.009 10.39.33.742-.66 1.402-1.155.66-2.061-3.051-4.535-5.855-7.256-8.329-2.474-2.309-6.02-3.793-8.081-6.35-.577-.576-.33-1.813.66-1.73z"/></g><g><path fill="#6d4b57" d="M202.243 166.973c1.649-.577 3.628.247 5.195.742 1.814.577 3.628 1.32 5.112 2.474.495.412-.082.99-.577.907-1.732-.33-3.463-.907-5.195-1.237-1.567-.33-3.463-.082-4.865-.99-.825-.494-.577-1.649.33-1.896z"/></g><g><path fill="#472e38" d="M196.553 204.41c1.979.247 4.04-14.843 3.71-17.647-.33-2.803-7.75-3.215-8.328-.66-.577 2.64 1.732 17.977 4.618 18.307z"/></g><g><path fill="#472e38" d="M195.646 215.707c-1.98-.247-4.04 14.843-3.71 17.647.329 2.803 7.75 3.216 8.328.66.494-2.557-1.814-17.977-4.618-18.307z"/></g><g><path fill="#472e38" d="M192.43 205.73c1.567-1.238-7.586-13.36-9.813-15.09-2.226-1.732-7.751 3.215-6.35 5.442 1.403 2.226 13.937 11.461 16.163 9.647z"/></g><g><path fill="#472e38" d="M199.769 214.388c-1.567 1.237 7.586 13.358 9.813 15.09 2.226 1.732 7.75-3.216 6.35-5.442-1.403-2.227-13.937-11.462-16.163-9.648z"/></g><g><path fill="#472e38" d="M190.368 209.605c.248-1.979-14.842-4.04-17.646-3.71-2.804.33-3.216 7.75-.66 8.328 2.64.577 18.06-1.732 18.306-4.618z"/></g><g><path fill="#472e38" d="M201.748 210.512c-.247 1.98 14.843 4.04 17.646 3.711 2.804-.33 3.216-7.751.66-8.328-2.639-.578-17.976 1.814-18.306 4.617z"/></g><g><path fill="#472e38" d="M191.77 213.728c-1.237-1.566-13.358 7.587-15.09 9.813-1.732 2.226 3.216 7.751 5.442 6.35 2.227-1.402 11.462-13.936 9.648-16.163z"/></g><g><path fill="#472e38" d="M200.429 206.39c1.237 1.566 13.358-7.587 15.09-9.814 1.731-2.226-3.216-7.75-5.443-6.349-2.226 1.402-11.461 13.936-9.647 16.162z"/></g></g><g><g><path fill="#533741" d="M-72.762 177.198c29.768 32.242 5.937 81.8-33.643 78.502-29.768-2.474-52.527-31.994-42.797-61.845 9.73-30.18 54.918-39.91 76.44-16.657z"/></g><g><path fill="#472e38" d="M-149.202 193.855c2.061-6.432 5.772-11.874 10.555-16.327-2.639 3.381-4.783 7.092-6.102 11.297-9.4 29.109 12.699 57.722 41.642 60.196 19.79 1.65 35.458-10.307 42.22-26.552-5.195 19.625-22.76 35.128-45.436 33.231-29.85-2.391-52.61-31.912-42.88-61.845z"/></g><g><path fill="#472e38" d="M-82.492 187.093c20.862 22.594 4.123 57.31-23.584 55.001-20.862-1.732-36.777-22.429-30.015-43.374 6.844-21.192 38.509-27.954 53.6-11.627z"/></g><g><path fill="#cbe8f9" d="M-85.46 189.98c18.223 19.708 3.628 50.053-20.616 47.991-18.223-1.484-32.159-19.543-26.222-37.849 6.102-18.388 33.644-24.408 46.837-10.142z"/></g><g><path fill="#a3c2d3" d="M-132.215 200.204c.99-3.05 2.638-5.772 4.617-8.08-2.556 16.656 10.473 31.994 27.212 33.396 9.483.824 17.4-3.381 22.512-9.895-2.474 12.946-13.524 23.666-28.202 22.429-18.14-1.567-32.076-19.543-26.14-37.85z"/></g><g><g><g><path fill="#472e38" d="M-106.488 171.096c0-1.072-.082-1.649.33-2.638.165-.33.66-.33.907-.083 1.567 1.567 1.484 5.03.66 6.927-.413 1.072-1.897.907-2.062-.248-.082-1.319.165-2.638.165-3.958z"/></g><g><path fill="#472e38" d="M-106.488 244.403c.165-1.154 2.227-1.154 2.392 0 .247 1.65.577 3.546-.083 5.195-.412 1.155-1.814 1.155-2.226 0-.578-1.649-.33-3.546-.083-5.195z"/></g><g><path fill="#472e38" d="M-133.122 183.218c-.743-.742-1.237-1.155-1.65-2.144-.165-.33.248-.742.578-.742 2.144 0 4.617 2.556 5.36 4.453.412 1.072-.66 1.979-1.65 1.237-.99-.825-1.731-1.897-2.638-2.804z"/></g><g><path fill="#472e38" d="M-81.337 234.92c-.743-.99.742-2.39 1.731-1.731 1.32.99 2.886 2.144 3.628 3.71.495 1.072-.494 2.062-1.566 1.567-1.65-.577-2.721-2.144-3.793-3.546z"/></g><g><path fill="#472e38" d="M-143.43 210.595c-1.072 0-1.65.082-2.639-.33-.33-.165-.33-.66-.082-.907 1.567-1.567 5.03-1.485 6.927-.66 1.072.412.907 1.897-.248 2.061-1.32.083-2.639-.164-3.958-.164z"/></g><g><path fill="#472e38" d="M-70.205 210.512c-1.155-.165-1.155-2.226 0-2.391 1.649-.248 3.545-.577 5.195.082 1.154.413 1.154 1.814 0 2.227-1.567.66-3.464.33-5.195.082z"/></g><g><path fill="#472e38" d="M-131.39 237.23c-.743.741-1.155 1.236-2.145 1.648-.33.165-.742-.247-.742-.577 0-2.144 2.556-4.618 4.453-5.36 1.072-.412 1.979.66 1.237 1.65-.742.906-1.814 1.649-2.804 2.638z"/></g><g><path fill="#472e38" d="M-79.606 185.362c-.99.742-2.391-.742-1.731-1.732.99-1.32 2.143-2.886 3.71-3.628 1.072-.495 2.062.495 1.567 1.567-.66 1.649-2.226 2.803-3.546 3.793z"/></g></g><g><g><path fill="#472e38" d="M-120.918 174.478c-.413-.99-.742-1.485-.66-2.557 0-.412.495-.577.825-.412 1.979.825 3.298 4.123 3.216 6.185 0 1.154-1.402 1.566-1.98.494-.66-1.237-.907-2.474-1.401-3.71z"/></g><g><path fill="#472e38" d="M-93.047 242.177c-.247-1.154 1.567-1.979 2.227-.907.824 1.485 1.896 3.051 1.896 4.783 0 1.237-1.237 1.732-2.061.825-1.237-1.155-1.65-3.051-2.062-4.7z"/></g><g><path fill="#472e38" d="M-140.956 195.752c-.99-.412-1.567-.577-2.309-1.32-.247-.247-.082-.741.247-.906 1.98-.825 5.195.577 6.68 2.061.824.825.082 2.062-1.072 1.732-1.237-.33-2.31-1.072-3.546-1.567z"/></g><g><path fill="#472e38" d="M-73.339 223.954c-.99-.66-.247-2.474.907-2.227 1.65.412 3.546.825 4.783 2.062.824.824.33 2.144-.907 2.061-1.732 0-3.381-.99-4.783-1.896z"/></g><g><path fill="#472e38" d="M-140.131 224.943c-.99.412-1.485.742-2.557.66-.412 0-.577-.495-.412-.825.825-1.979 4.123-3.298 6.184-3.216 1.155 0 1.567 1.402.495 1.98-1.154.659-2.474.906-3.71 1.4z"/></g><g><path fill="#472e38" d="M-72.35 197.072c-1.154.247-1.978-1.567-.906-2.227 1.484-.824 3.05-1.896 4.782-1.896 1.237 0 1.732 1.237.825 2.061-1.155 1.237-3.051 1.732-4.7 2.062z"/></g><g><path fill="#472e38" d="M-118.857 244.98c-.412.99-.577 1.567-1.32 2.31-.247.247-.741.082-.906-.248-.825-1.979.577-5.195 2.061-6.68.825-.824 2.062-.082 1.732 1.073-.33 1.237-.99 2.391-1.567 3.546z"/></g><g><path fill="#472e38" d="M-90.655 177.446c-.66.99-2.474.247-2.227-.907.412-1.65.825-3.546 2.062-4.783.824-.824 2.144-.33 2.061.907.083 1.65-.99 3.299-1.896 4.783z"/></g></g></g><g><path fill="#6d4b57" d="M-84.8 172.003c3.38.33 6.431 3.134 8.822 5.36 3.134 2.886 5.36 6.514 7.01 10.39.33.742-.66 1.402-1.155.66-2.061-3.051-4.535-5.855-7.256-8.329-2.474-2.309-6.02-3.793-8.082-6.35-.577-.576-.33-1.813.66-1.73z"/></g><g><path fill="#6d4b57" d="M-99.479 166.973c1.65-.577 3.629.247 5.195.742 1.814.577 3.629 1.32 5.113 2.474.495.412-.083.99-.577.907-1.732-.33-3.464-.907-5.195-1.237-1.567-.33-3.464-.082-4.866-.99-.742-.494-.577-1.649.33-1.896z"/></g><g><path fill="#472e38" d="M-105.168 204.41c1.979.247 4.04-14.843 3.71-17.647-.33-2.803-7.751-3.215-8.328-.66-.577 2.64 1.731 17.977 4.618 18.307z"/></g><g><path fill="#472e38" d="M-106.076 215.707c-1.979-.247-4.04 14.843-3.71 17.647.33 2.803 7.751 3.216 8.328.66.577-2.557-1.814-17.977-4.618-18.307z"/></g><g><path fill="#472e38" d="M-109.291 205.73c1.566-1.238-7.587-13.36-9.813-15.09-2.227-1.732-7.751 3.215-6.35 5.442 1.402 2.226 13.936 11.461 16.163 9.647z"/></g><g><path fill="#472e38" d="M-101.952 214.388c-1.567 1.237 7.586 13.358 9.812 15.09 2.227 1.732 7.751-3.216 6.35-5.442-1.402-2.227-13.936-11.462-16.162-9.648z"/></g><g><path fill="#472e38" d="M-111.27 209.605c.247-1.979-14.843-4.04-17.647-3.71-2.804.33-3.216 7.75-.66 8.328 2.557.577 17.977-1.732 18.307-4.618z"/></g><g><path fill="#472e38" d="M-99.974 210.512c-.247 1.98 14.843 4.04 17.647 3.711 2.804-.33 3.216-7.751.66-8.328-2.64-.578-17.977 1.814-18.307 4.617z"/></g><g><path fill="#472e38" d="M-109.951 213.728c-1.237-1.566-13.359 7.587-15.09 9.813-1.732 2.226 3.216 7.751 5.442 6.35 2.226-1.402 11.462-13.936 9.648-16.163z"/></g><g><path fill="#472e38" d="M-101.293 206.39c1.237 1.566 13.359-7.587 15.09-9.814 1.732-2.226-3.216-7.75-5.442-6.349-2.226 1.402-11.462 13.936-9.648 16.162z"/></g></g><g><path fill="#6e83b1" d="M-158.355 96.882c2.309 4.618 2.226 12.534-2.969 14.019-5.195 1.484-41.395 3.71-48.734.742-7.421-2.969-17.729-40.653-12.534-42.797 5.195-2.227 21.44-4.453 27.295-2.227 5.937 2.144 33.973 24.326 36.942 30.263z"/></g><g><path fill="#5c6e94" d="M274.643 193.608c5.112-.907 11.462 1.402 15.585 4.535 1.072.825.082 2.721-1.155 1.897-2.391-1.567-4.947-2.31-7.751-2.969-2.391-.495-4.7-.577-6.927-1.567-.824-.33-.577-1.731.248-1.896z"/></g><g><path fill="#5c6e94" d="M261.696 193.195c2.062-.66 4.618-.412 6.68.165.824.248.907 1.567 0 1.815-2.062.494-4.7.577-6.68-.248-.824-.247-.907-1.402 0-1.732z"/></g><g><path fill="#5c6e94" d="M-222.592 68.763c.66-.247 1.485-.577 2.392-.824 1.567 6.267 5.36 12.121 9.73 16.987 12.37 13.77 29.52 23.006 47.744 26.222-8.41 1.484-40.405 3.216-47.332.412-7.339-2.886-17.729-40.57-12.534-42.797z"/></g><g><g><path fill="#f48120" d="M-209.728 139.844c9.4-2.721 13.606 33.726 6.102 36.86"/></g><g><path fill="#f16522" d="M-209.975 170.024c.082 0 .082 0 0 0 2.061.083 4.288-.66 5.442-2.473.66-.99.907-2.227 1.072-3.464 1.32-8.328-.412-17.151-4.535-24.243 8.163 1.897 11.38 33.974 4.37 36.942-2.309.907-4.618-2.061-6.35-6.762z"/></g><g><path fill="#fcb912" d="M-210.717 143.307c.165-.33.742-.165.66.165-.248 3.216-.33 6.432-.413 9.73 0 .743-.99.908-1.237.165-.824-3.298-.412-6.926.99-10.06z"/></g><g><path fill="#fcb912" d="M-210.552 156.171c.164 1.155.494 2.144.247 3.299-.083.494-.66.494-.907.165-.66-.99-.577-2.227-.577-3.381-.083-.99 1.154-.99 1.237-.083z"/></g></g><g><path fill="#5c6e94" d="M-34.83 9.887c8.823-2.474 62.834 3.298 82.46 11.627 19.708 8.41 105.879 88.314 103.405 95.653-2.474 7.092-178.279 4.453-183.886 3.463-5.525-1.072-7.504-109.176-1.979-110.743z"/></g><g><path fill="#272727" fill-opacity=".45" d="M-30.542 12.03c8.328-2.308 54.424 3.464 73.06 11.215C61.153 31.08 145.592 106.86 143.2 113.704c-2.309 6.597-166.569 2.474-171.847 1.485-5.277-.99-7.174-101.674-1.896-103.158z"/></g><g><path fill="#5c6e94" d="M-42.994 9.722c4.206.99 3.629 106.786-.412 110.084-3.958 3.299-84.192 4.453-90.129 2.062-6.02-2.474 29.109-85.182 44.694-98.623C-73.34 9.722-46.621 8.897-42.994 9.722z"/></g><g><path fill="#b6e4f9" d="M-47.776 13.763c3.628.824 3.133 96.725-.33 99.694-3.463 2.969-72.647 4.04-77.76 1.814-5.195-2.227 25.15-77.183 38.509-89.387 13.44-12.121 36.447-12.864 39.58-12.121z"/></g><g><path fill="#272727" fill-opacity=".83" d="M-28.646 115.189c-5.277-.99-7.174-101.674-1.897-103.158 3.051-.825 11.05-.577 20.863.412-7.504 18.471-5.278 40.9 6.267 57.228 6.68 9.4 15.915 16.656 25.398 23.17 8.905 6.103 18.471 11.875 29.108 13.524 10.473 1.65 21.11-.66 31.748-.907 6.596-.165 13.358.495 19.707-1.32 5.773-1.648 10.803-5.277 15.998-8.08 2.391-1.32 4.782-2.392 7.256-3.464 10.885 10.803 18.059 19.214 17.317 21.276-2.227 6.514-166.57 2.308-171.765 1.319z"/></g><g><path fill="#7ed2f6" d="M-93.212 98.284c9.236-2.804 18.471-6.844 24.573-14.348 7.67-9.318 8.906-22.264 9.153-34.386.248-11.71-.577-24.16-6.596-34.056 8.905-2.144 16.657-2.226 18.306-1.814 3.628.825 3.133 96.726-.33 99.694-3.463 2.968-72.647 4.04-77.76 1.814-1.32-.577-.247-6.184 2.309-14.348 9.813 1.98 20.533.413 30.345-2.556z"/></g><g><path fill="#f6fbfd" d="M59.504 40.397c3.876 2.144 6.927 6.102 10.143 9.07 3.958 3.711 8.41 7.092 12.04 11.133.824.824-.166 2.144-1.238 1.649-4.37-2.391-8.41-5.772-12.286-8.906-3.794-3.05-8.576-6.184-11.215-10.307-1.072-1.65.99-3.546 2.556-2.639z"/></g><g><path fill="#f6fbfd" d="M43.26 29.842c4.123-.66 8.658 3.216 11.297 5.937 1.649 1.815-.825 4.206-2.639 2.64-1.484-1.238-3.051-2.31-4.7-3.3-1.567-.906-3.381-1.319-4.7-2.638-.825-.742-.578-2.474.742-2.639z"/></g><g><path fill="#f6fbfd" d="M-104.261 64.063c1.154-5.525 4.535-10.555 6.926-15.585 2.721-5.69 5.03-11.627 8.164-17.07.66-1.071 2.391-.329 2.061.825-1.484 5.443-3.875 10.72-6.102 15.915-2.474 5.772-4.453 12.534-8.493 17.4-1.072 1.236-2.886-.166-2.556-1.485z"/></g><g><path fill="#f6fbfd" d="M-109.786 75.278c.824-1.897 1.896-3.876 3.546-5.113.824-.577 2.226.165 2.061 1.237-.247 2.391-2.061 4.288-4.04 5.525-1.072.66-1.98-.66-1.567-1.65z"/></g><g><path fill="#b6e4f9" d="M254.605 132.918c5.607 2.39 20.038 19.707 19.213 27.789-.742 8.08-42.714-18.554-44.364-24.656-1.649-6.102 18.39-6.02 25.15-3.133z"/></g><g><path fill="#464646" d="M229.455 136.05c-.743-2.638 2.638-4.122 7.256-4.7 3.463 5.608 4.7 8.659 16.657 17.812 10.225 7.834 16.41 6.597 19.213 5.442.907 2.227 1.484 4.37 1.32 6.02-.825 8.164-42.797-18.471-44.446-24.573z"/></g><g><path fill="#f6fbfd" d="M258.233 138.772c1.732.577 2.804 2.474 3.876 3.875a39.645 39.645 0 0 1 3.71 5.443c.33.577-.494 1.237-.907.742-1.401-1.567-2.803-3.051-4.288-4.618-1.154-1.237-3.05-2.556-3.463-4.288-.247-.742.412-1.402 1.072-1.154z"/></g><g><path fill="#f6fbfd" d="M251.636 133.907c1.65.082 2.721 1.237 3.793 2.391.743.825-.33 1.897-1.236 1.237-1.072-.824-2.31-1.402-3.134-2.556-.33-.412.083-1.072.577-1.072z"/></g><g><path fill="#5c6e94" d="M156.312 126.98c.165-1.32 1.897-1.32 2.062 0 1.732 14.843 1.732 31.335.66 46.26 0 .083-.083.165-.083.165 0 .165-.082.248-.082.413 0 .082-.083.164-.165.247-.083.082-.165.165-.165.247-.083.083-.165.165-.33.248-.082 0-.082.082-.165.082-.165.083-.247.083-.412.165h-.495a.63.63 0 0 1-.412-.165c-.083 0-.083 0-.165-.082-.083-.083-.248-.165-.33-.248-.082-.082-.165-.165-.165-.247-.082-.083-.082-.165-.165-.247-.082-.083-.082-.248-.082-.413 0-.082-.083-.082-.083-.165-1.154-14.842-1.154-31.334.577-46.26z"/></g><g><path fill="#5c6e94" d="M-39.118 126.98c.165-1.32 1.897-1.32 2.062 0 1.731 14.843 1.731 31.335.66 46.26 0 .083-.083.165-.083.165 0 .165-.083.248-.083.413 0 .082-.082.164-.165.247-.082.082-.164.165-.164.247-.083.083-.165.165-.33.248-.083 0-.083.082-.165.082-.165.083-.248.083-.413.165h-.494a.63.63 0 0 1-.413-.165c-.082 0-.082 0-.165-.082-.082-.083-.247-.165-.33-.248-.082-.082-.164-.165-.164-.247-.083-.083-.083-.165-.165-.247-.083-.083-.083-.248-.083-.413 0-.082-.082-.082-.082-.165-1.237-14.842-1.155-31.334.577-46.26z"/></g><g><path fill="#533741" d="M200.016 130.938c1.155-.082 1.65.495 2.392 1.237l2.72 2.969c1.073 1.236 3.382 3.216 3.052 4.947-.083.248-.33.495-.577.495-.907 0-1.32-.412-1.98-1.072-.824-.825-1.649-1.567-2.473-2.309-.825-.742-1.65-1.567-2.474-2.309-.907-.824-1.814-1.32-1.732-2.721-.082-.742.33-1.154 1.072-1.237z"/></g><g><path fill="#533741" d="M190.698 129.949c2.227-.248 4.453 3.05 5.772 4.452 2.062 2.062 4.37 4.288 5.855 6.845.412.742-.495 1.731-1.237 1.236-2.226-1.484-4.123-3.628-6.102-5.442-1.649-1.484-4.865-3.298-5.36-5.69-.165-.824.33-1.319 1.072-1.401z"/></g><g><path fill="#533741" d="M182.947 130.69c2.474.578 4.288 2.887 6.02 4.618 1.896 1.98 3.628 4.206 5.524 6.185.578.577 0 1.732-.824 1.484-2.391-.742-3.958-2.803-5.607-4.535-1.98-1.98-5.03-3.71-6.267-6.185-.495-.824.247-1.814 1.154-1.566z"/></g><g><path fill="#533741" d="M174.536 130.69c2.474 1.32 4.288 3.547 6.267 5.526 1.897 1.896 4.04 3.793 5.607 6.102.495.824-.494 1.731-1.319 1.319-2.391-1.402-4.37-3.463-6.432-5.277-2.061-1.815-4.37-3.546-5.854-5.938-.66-1.072.66-2.308 1.731-1.731z"/></g><g><path fill="#96a1d1" d="M74.347 34.378c5.113 2.72 9.236 6.596 13.606 10.307 4.7 3.958 9.483 7.834 13.77 12.122.578.577-.164 1.649-.906 1.237-4.7-2.969-9.07-6.432-13.441-9.813-4.948-3.876-10.143-7.422-14.266-12.204-.742-.907.165-2.144 1.237-1.65z"/></g><g><path fill="#96a1d1" d="M61.236 25.884c1.732.495 3.133 1.237 4.618 2.309 1.566 1.072 3.298 2.144 4.617 3.628.578.66 0 1.732-.824 1.485-1.65-.495-3.134-1.402-4.535-2.31-1.815-1.071-3.299-1.978-4.618-3.545-.66-.742-.165-1.814.742-1.567z"/></g><g><path fill="#96a1d1" d="M209.829 122.94c6.267 0 14.018 1.401 19.625 4.205.825.412.413 1.732-.494 1.732-2.886-.083-5.69-.907-8.576-1.485-3.628-.742-7.339-1.154-10.967-2.226-1.155-.33-.907-2.226.412-2.226z"/></g><g><path fill="#96a1d1" d="M195.399 121.125c2.638-.082 5.112.248 7.586 1.155.824.33.66 1.484-.165 1.484-2.639.165-5.113-.165-7.669-.907-.99-.247-.824-1.65.248-1.732z"/></g><g><path fill="#96a1d1" d="M-196.782 71.65c7.587 3.215 14.596 8.988 19.956 15.255 1.237 1.484-.66 3.298-2.062 2.061-6.267-5.195-12.946-9.895-19.13-15.172-.99-.743 0-2.64 1.236-2.144z"/></g><g><path fill="#96a1d1" d="M-206.017 69.176c1.896-.907 3.793-.33 5.36.99.99.824-.083 2.39-1.237 2.06-1.402-.412-2.886-.741-4.206-1.566-.494-.33-.577-1.237.083-1.484z"/></g><g><path fill="#96a1d1" d="M-103.437 32.481c2.886-6.762 8.411-12.204 14.43-16.492.66-.495 1.403.577.908 1.154-5.03 5.195-9.153 11.05-13.771 16.575-.742.907-1.98-.248-1.567-1.237z"/></g><g><path fill="#96a1d1" d="M-106.983 38.995c.743-1.072 2.804-.494 2.31.99-1.073 2.556-2.392 4.865-4.206 7.009-.66.742-1.814 0-1.567-.907.66-2.639 1.814-4.948 3.463-7.092z"/></g><g><path fill="#5c6e94" d="M-154.645 135.226c4.948 1.98 9.483 4.948 14.184 7.422 5.277 2.803 10.72 5.195 15.997 7.833 1.237.577.33 2.557-.907 2.144-10.39-3.38-22.1-8.08-30.675-14.925-1.237-.907 0-3.051 1.401-2.474z"/></g><g><path fill="#5c6e94" d="M-169.075 127.97c1.897.742 3.463 1.566 5.112 2.72 1.732 1.155.165 3.876-1.649 2.804-1.731-1.072-3.133-2.226-4.535-3.628-.742-.742 0-2.309 1.072-1.896z"/></g><g><path fill="#5c6e94" d="M173.547 109.828c-3.464-8.41-10.06-9.235-19.131-8.905-4.865.165-3.71 24.243 1.896 24.243 7.999 0 23.914 1.072 17.235-15.338z"/></g><g><path fill="#455473" d="M167.032 115.766c3.958-4.37 3.216-9.978-1.814-14.019 3.628 1.072 6.514 3.464 8.411 8.081 6.68 16.328-9.318 15.338-17.234 15.338-1.237 0-2.226-1.072-2.969-2.886 5.69-1.072 10.803-3.381 13.606-6.514z"/></g><g><path fill="#6e83b1" d="M155.24 104.386c.248-.412 1.155-.495 1.485-.082.824.907.824 2.061.99 3.133.247 1.237.412 2.309.082 3.546-.248.66-1.65.495-1.98 0-.577-.99-.659-1.98-.741-3.051-.083-1.155-.413-2.392.164-3.546z"/></g><g><path fill="#6e83b1" d="M155.405 114.529c.165-.413.99-.413 1.32-.083.907.742 1.154 2.227.247 3.051-.33.248-1.154.33-1.402 0-.66-.824-.66-2.144-.165-2.968z"/></g></g></g></g><g><g/><g><g><path fill="#fee600" fill-opacity=".49" d="M1463.968 251.995c168.383 2.886 240.618-1.65 248.617 21.44 7.998 23.088-118.33 27.541-249.441 25.315-131.112-2.227-241.773 0-243.835-21.357-2.061-21.358 146.037-27.047 244.659-25.398z"/></g><g><g><path fill="#472e38" d="M1215.845 209.44c-5.112-1.567-12.204-1.567-13.193.99-.99 2.556-.99 13.77 2.556 16.244 3.546 2.556 22.347-.495 22.347-.495l1.566-13.193z"/></g><g><path fill="#472e38" d="M1230.523 104.634s3.793 18.058 2.474 20.285c-1.237 2.226-31.747 1.072-31.747 1.072s-4.618-21.44-2.886-22.924c1.65-1.402 29.685-1.732 32.16 1.567z"/></g><g><path fill="#d3b608" d="M1680.92 195.422s2.969-50.96-42.054-70.174c-45.024-19.213-426.072-8.163-442.317-2.226-16.244 5.937.742 69.431 8.824 75.286 8.081 6.02 475.547-2.886 475.547-2.886z"/></g><g><path fill="#ae9604" d="M1196.467 123.105c.742-.248 2.144-.495 4.288-.825 38.014 25.315 170.197 78.997 374.369 69.844 63.577-2.886 64.236-.413 31.087 4.7-132.348 2.226-394.819 6.02-400.92 1.65-8.082-5.938-25.069-69.515-8.824-75.37z"/></g><g><path fill="#fee600" d="M1574.63 120.136S1488.21 22.668 1431.395 8.65c-56.898-14.018-104.889-11.792-129.215 12.534-19.213 19.213-53.187 108.517-53.187 108.517z"/></g><g><path fill="#fee600" d="M1677.21 190.31c10.39 0 22.923 6.679 19.213 14.018-3.711 7.421-15.503 6.68-14.76 13.276.741 6.68 13.275 11.05 7.42 14.76-5.936 3.71-463.012 0-471.176 0-8.164 0-1.484-8.163 2.226-11.792 3.71-3.71-32.49-25.81-20.697-25.81 20.697-.082 417.99-4.452 477.773-4.452z"/></g><g><path fill="#d3b608" d="M1220.134 220.572c3.71-3.71-32.49-25.81-20.698-25.81 1.484 0 5.113 0 10.472-.082 3.464 7.751 36.283 10.637 78.915 17.811 40.735 6.762 332.314 13.111 397.952 12.617 3.05 2.886 5.607 5.195 2.226 7.256-5.937 3.71-463.013 0-471.176 0-8 0-1.402-8.081 2.309-11.792z"/></g><g><g><path fill="#533741" d="M1629.96 177.198c29.768 32.242 5.937 81.8-33.644 78.502-29.768-2.474-52.527-31.994-42.797-61.845 9.73-30.18 54.919-39.91 76.44-16.657z"/></g><g><path fill="#472e38" d="M1553.52 193.855c2.06-6.432 5.772-11.874 10.554-16.327-2.639 3.381-4.782 7.092-6.102 11.297-9.4 29.109 12.7 57.722 41.642 60.196 19.791 1.65 35.458-10.307 42.22-26.552-5.195 19.625-22.759 35.128-45.435 33.231-29.85-2.391-52.61-31.912-42.88-61.845z"/></g><g><path fill="#472e38" d="M1620.23 187.093c20.862 22.594 4.123 57.31-23.584 55.001-20.862-1.732-36.777-22.429-30.016-43.374 6.845-21.192 38.427-27.954 53.6-11.627z"/></g><g><path fill="#cbe8f9" d="M1617.261 189.98c18.224 19.708 3.628 50.053-20.615 47.991-18.224-1.484-32.16-19.543-26.222-37.849 6.02-18.388 33.643-24.408 46.837-10.142z"/></g><g><path fill="#a3c2d3" d="M1570.506 200.204c.99-3.05 2.639-5.772 4.618-8.08-2.556 16.656 10.472 31.994 27.212 33.396 9.483.824 17.399-3.381 22.511-9.895-2.473 12.946-13.523 23.666-28.201 22.429-18.141-1.567-32.077-19.543-26.14-37.85z"/></g><g><g><g><path fill="#472e38" d="M1596.234 171.096c0-1.072-.083-1.649.33-2.638.164-.33.66-.33.907-.083 1.566 1.567 1.484 5.03.66 6.927-.413 1.072-1.897.907-2.062-.248-.083-1.319.082-2.638.165-3.958z"/></g><g><path fill="#472e38" d="M1596.234 244.403c.165-1.154 2.226-1.154 2.391 0 .247 1.65.577 3.546-.082 5.195-.413 1.155-1.815 1.155-2.227 0-.66-1.649-.33-3.546-.082-5.195z"/></g><g><path fill="#472e38" d="M1569.6 183.218c-.743-.742-1.238-1.155-1.65-2.144-.165-.33.247-.742.577-.742 2.144 0 4.618 2.556 5.36 4.453.412 1.072-.66 1.979-1.65 1.237-.989-.825-1.73-1.897-2.638-2.804z"/></g><g><path fill="#472e38" d="M1621.384 234.92c-.742-.99.742-2.39 1.732-1.731 1.319.99 2.886 2.144 3.628 3.71.495 1.072-.495 2.062-1.567 1.567-1.65-.577-2.721-2.144-3.793-3.546z"/></g><g><path fill="#472e38" d="M1559.292 210.595c-1.072 0-1.65.082-2.64-.33-.329-.165-.329-.66-.082-.907 1.567-1.567 5.03-1.485 6.927-.66 1.072.412.907 1.897-.247 2.061-1.32.083-2.64-.164-3.958-.164z"/></g><g><path fill="#472e38" d="M1632.516 210.512c-1.154-.165-1.154-2.226 0-2.391 1.65-.248 3.546-.577 5.195.082 1.155.413 1.155 1.814 0 2.227-1.65.66-3.546.33-5.195.082z"/></g><g><path fill="#472e38" d="M1571.33 237.23c-.741.741-1.154 1.236-2.143 1.648-.33.165-.742-.247-.742-.577 0-2.144 2.556-4.618 4.452-5.36 1.072-.412 1.98.66 1.237 1.65-.742.906-1.814 1.649-2.803 2.638z"/></g><g><path fill="#472e38" d="M1623.116 185.362c-.99.742-2.392-.742-1.732-1.732.99-1.32 2.144-2.886 3.71-3.628 1.073-.495 2.062.495 1.567 1.567-.66 1.649-2.226 2.803-3.545 3.793z"/></g></g><g><g><path fill="#472e38" d="M1581.803 174.478c-.412-.99-.742-1.485-.66-2.557 0-.412.495-.577.825-.412 1.98.825 3.298 4.123 3.216 6.185 0 1.154-1.402 1.566-1.979.494-.66-1.237-.907-2.474-1.402-3.71z"/></g><g><path fill="#472e38" d="M1609.675 242.177c-.248-1.154 1.566-1.979 2.226-.907.825 1.485 1.897 3.051 1.897 4.783 0 1.237-1.237 1.732-2.062.825-1.237-1.155-1.649-3.051-2.061-4.7z"/></g><g><path fill="#472e38" d="M1561.765 195.752c-.99-.412-1.566-.577-2.309-1.32-.247-.247-.082-.741.248-.906 1.979-.825 5.195.577 6.68 2.061.824.825.082 2.062-1.073 1.732-1.237-.33-2.391-1.072-3.546-1.567z"/></g><g><path fill="#472e38" d="M1629.383 223.954c-.99-.66-.248-2.474.907-2.227 1.649.412 3.545.825 4.782 2.062.825.824.33 2.144-.907 2.061-1.731 0-3.38-.99-4.782-1.896z"/></g><g><path fill="#472e38" d="M1562.59 224.943c-.99.412-1.484.742-2.556.66-.413 0-.578-.495-.413-.825.825-1.979 4.123-3.298 6.185-3.216 1.154 0 1.567 1.402.495 1.98-1.155.659-2.474.906-3.711 1.4z"/></g><g><path fill="#472e38" d="M1630.372 197.072c-1.154.247-1.979-1.567-.907-2.227 1.484-.824 3.051-1.896 4.783-1.896 1.237 0 1.731 1.237.824 2.061-1.154 1.237-3.05 1.732-4.7 2.062z"/></g><g><path fill="#472e38" d="M1583.865 244.98c-.413.99-.578 1.567-1.32 2.31-.247.247-.742.082-.907-.248-.824-1.979.577-5.195 2.062-6.68.824-.824 2.061-.082 1.731 1.073-.33 1.237-.99 2.391-1.566 3.546z"/></g><g><path fill="#472e38" d="M1612.066 177.446c-.66.99-2.474.247-2.226-.907.412-1.65.824-3.546 2.061-4.783.825-.824 2.144-.33 2.062.907 0 1.65-.99 3.299-1.897 4.783z"/></g></g></g><g><path fill="#6d4b57" d="M1617.92 172.003c3.382.33 6.433 3.134 8.824 5.36 3.133 2.886 5.36 6.514 7.009 10.39.33.742-.66 1.402-1.154.66-2.062-3.051-4.536-5.855-7.257-8.329-2.474-2.309-6.02-3.793-8.081-6.35-.577-.576-.33-1.813.66-1.73z"/></g><g><path fill="#6d4b57" d="M1603.243 166.973c1.649-.577 3.628.247 5.195.742 1.814.577 3.628 1.32 5.112 2.474.495.412-.082.99-.577.907-1.732-.33-3.463-.907-5.195-1.237-1.567-.33-3.463-.082-4.865-.99-.825-.494-.577-1.649.33-1.896z"/></g><g><path fill="#472e38" d="M1597.553 204.41c1.98.247 4.04-14.843 3.71-17.647-.33-2.803-7.75-3.215-8.328-.66-.577 2.64 1.732 17.977 4.618 18.307z"/></g><g><path fill="#472e38" d="M1596.646 215.707c-1.98-.247-4.04 14.843-3.71 17.647.33 2.803 7.75 3.216 8.328.66.494-2.557-1.814-17.977-4.618-18.307z"/></g><g><path fill="#472e38" d="M1593.43 205.73c1.567-1.238-7.586-13.36-9.813-15.09-2.226-1.732-7.751 3.215-6.35 5.442 1.403 2.226 13.937 11.461 16.163 9.647z"/></g><g><path fill="#472e38" d="M1600.769 214.388c-1.567 1.237 7.586 13.358 9.813 15.09 2.226 1.732 7.751-3.216 6.35-5.442-1.403-2.227-13.937-11.462-16.163-9.648z"/></g><g><path fill="#472e38" d="M1591.369 209.605c.247-1.979-14.843-4.04-17.647-3.71-2.804.33-3.216 7.75-.66 8.328 2.64.577 18.06-1.732 18.307-4.618z"/></g><g><path fill="#472e38" d="M1602.748 210.512c-.247 1.98 14.843 4.04 17.646 3.711 2.804-.33 3.216-7.751.66-8.328-2.639-.578-17.976 1.814-18.306 4.617z"/></g><g><path fill="#472e38" d="M1592.77 213.728c-1.237-1.566-13.358 7.587-15.09 9.813-1.732 2.226 3.216 7.751 5.443 6.35 2.226-1.402 11.461-13.936 9.647-16.163z"/></g><g><path fill="#472e38" d="M1601.429 206.39c1.237 1.566 13.358-7.587 15.09-9.814 1.731-2.226-3.216-7.75-5.443-6.349-2.226 1.402-11.461 13.936-9.647 16.162z"/></g></g><g><g><path fill="#533741" d="M1328.238 177.198c29.769 32.242 5.938 81.8-33.643 78.502-29.768-2.474-52.527-31.994-42.797-61.845 9.73-30.18 54.918-39.91 76.44-16.657z"/></g><g><path fill="#472e38" d="M1251.798 193.855c2.061-6.432 5.772-11.874 10.555-16.327-2.639 3.381-4.783 7.092-6.102 11.297-9.4 29.109 12.699 57.722 41.642 60.196 19.79 1.65 35.458-10.307 42.22-26.552-5.195 19.625-22.76 35.128-45.436 33.231-29.85-2.391-52.61-31.912-42.879-61.845z"/></g><g><path fill="#472e38" d="M1318.508 187.093c20.863 22.594 4.123 57.31-23.583 55.001-20.863-1.732-36.778-22.429-30.016-43.374 6.844-21.192 38.509-27.954 53.6-11.627z"/></g><g><path fill="#cbe8f9" d="M1315.54 189.98c18.223 19.708 3.628 50.053-20.615 47.991-18.224-1.484-32.16-19.543-26.223-37.849 6.102-18.388 33.644-24.408 46.838-10.142z"/></g><g><path fill="#a3c2d3" d="M1268.785 200.204c.99-3.05 2.638-5.772 4.617-8.08-2.556 16.656 10.473 31.994 27.212 33.396 9.483.824 17.4-3.381 22.512-9.895-2.474 12.946-13.524 23.666-28.201 22.429-18.142-1.567-32.077-19.543-26.14-37.85z"/></g><g><g><g><path fill="#472e38" d="M1294.512 171.096c0-1.072-.082-1.649.33-2.638.165-.33.66-.33.907-.083 1.567 1.567 1.484 5.03.66 6.927-.412 1.072-1.897.907-2.062-.248-.082-1.319.165-2.638.165-3.958z"/></g><g><path fill="#472e38" d="M1294.512 244.403c.165-1.154 2.227-1.154 2.392 0 .247 1.65.577 3.546-.083 5.195-.412 1.155-1.814 1.155-2.226 0-.578-1.649-.33-3.546-.083-5.195z"/></g><g><path fill="#472e38" d="M1267.878 183.218c-.742-.742-1.237-1.155-1.65-2.144-.164-.33.248-.742.578-.742 2.144 0 4.617 2.556 5.36 4.453.412 1.072-.66 1.979-1.65 1.237-.99-.825-1.731-1.897-2.638-2.804z"/></g><g><path fill="#472e38" d="M1319.663 234.92c-.743-.99.742-2.39 1.731-1.731 1.32.99 2.886 2.144 3.628 3.71.495 1.072-.494 2.062-1.566 1.567-1.65-.577-2.721-2.144-3.793-3.546z"/></g><g><path fill="#472e38" d="M1257.57 210.595c-1.072 0-1.65.082-2.639-.33-.33-.165-.33-.66-.082-.907 1.567-1.567 5.03-1.485 6.927-.66 1.072.412.907 1.897-.248 2.061-1.32.083-2.638-.164-3.958-.164z"/></g><g><path fill="#472e38" d="M1330.795 210.512c-1.155-.165-1.155-2.226 0-2.391 1.649-.248 3.545-.577 5.195.082 1.154.413 1.154 1.814 0 2.227-1.567.66-3.464.33-5.195.082z"/></g><g><path fill="#472e38" d="M1269.61 237.23c-.743.741-1.155 1.236-2.145 1.648-.33.165-.742-.247-.742-.577 0-2.144 2.556-4.618 4.453-5.36 1.072-.412 1.98.66 1.237 1.65-.742.906-1.814 1.649-2.804 2.638z"/></g><g><path fill="#472e38" d="M1321.394 185.362c-.99.742-2.391-.742-1.731-1.732.99-1.32 2.144-2.886 3.71-3.628 1.072-.495 2.062.495 1.567 1.567-.66 1.649-2.226 2.803-3.546 3.793z"/></g></g><g><g><path fill="#472e38" d="M1280.082 174.478c-.413-.99-.742-1.485-.66-2.557 0-.412.495-.577.825-.412 1.979.825 3.298 4.123 3.216 6.185 0 1.154-1.402 1.566-1.98.494-.66-1.237-.906-2.474-1.401-3.71z"/></g><g><path fill="#472e38" d="M1307.953 242.177c-.247-1.154 1.567-1.979 2.227-.907.824 1.485 1.896 3.051 1.896 4.783 0 1.237-1.237 1.732-2.061.825-1.237-1.155-1.65-3.051-2.062-4.7z"/></g><g><path fill="#472e38" d="M1260.044 195.752c-.99-.412-1.567-.577-2.309-1.32-.247-.247-.082-.741.247-.906 1.98-.825 5.195.577 6.68 2.061.824.825.082 2.062-1.072 1.732-1.237-.33-2.31-1.072-3.546-1.567z"/></g><g><path fill="#472e38" d="M1327.661 223.954c-.99-.66-.247-2.474.907-2.227 1.65.412 3.546.825 4.783 2.062.825.824.33 2.144-.907 2.061-1.732 0-3.381-.99-4.783-1.896z"/></g><g><path fill="#472e38" d="M1260.869 224.943c-.99.412-1.485.742-2.557.66-.412 0-.577-.495-.412-.825.825-1.979 4.123-3.298 6.184-3.216 1.155 0 1.567 1.402.495 1.98-1.154.659-2.474.906-3.71 1.4z"/></g><g><path fill="#472e38" d="M1328.65 197.072c-1.154.247-1.978-1.567-.906-2.227 1.484-.824 3.05-1.896 4.782-1.896 1.237 0 1.732 1.237.825 2.061-1.155 1.237-3.051 1.732-4.7 2.062z"/></g><g><path fill="#472e38" d="M1282.143 244.98c-.412.99-.577 1.567-1.32 2.31-.246.247-.741.082-.906-.248-.825-1.979.577-5.195 2.061-6.68.825-.824 2.062-.082 1.732 1.073-.33 1.237-.99 2.391-1.567 3.546z"/></g><g><path fill="#472e38" d="M1310.345 177.446c-.66.99-2.474.247-2.227-.907.412-1.65.825-3.546 2.062-4.783.824-.824 2.144-.33 2.061.907.083 1.65-.99 3.299-1.896 4.783z"/></g></g></g><g><path fill="#6d4b57" d="M1316.2 172.003c3.38.33 6.431 3.134 8.822 5.36 3.134 2.886 5.36 6.514 7.01 10.39.33.742-.66 1.402-1.155.66-2.061-3.051-4.535-5.855-7.256-8.329-2.474-2.309-6.02-3.793-8.081-6.35-.578-.576-.33-1.813.66-1.73z"/></g><g><path fill="#6d4b57" d="M1301.521 166.973c1.65-.577 3.629.247 5.195.742 1.814.577 3.629 1.32 5.113 2.474.495.412-.083.99-.577.907-1.732-.33-3.464-.907-5.195-1.237-1.567-.33-3.464-.082-4.866-.99-.742-.494-.577-1.649.33-1.896z"/></g><g><path fill="#472e38" d="M1295.832 204.41c1.979.247 4.04-14.843 3.71-17.647-.33-2.803-7.75-3.215-8.328-.66-.577 2.64 1.731 17.977 4.618 18.307z"/></g><g><path fill="#472e38" d="M1294.925 215.707c-1.98-.247-4.041 14.843-3.711 17.647.33 2.803 7.751 3.216 8.328.66.577-2.557-1.814-17.977-4.617-18.307z"/></g><g><path fill="#472e38" d="M1291.709 205.73c1.566-1.238-7.587-13.36-9.813-15.09-2.227-1.732-7.751 3.215-6.35 5.442 1.402 2.226 13.936 11.461 16.163 9.647z"/></g><g><path fill="#472e38" d="M1299.048 214.388c-1.567 1.237 7.586 13.358 9.812 15.09 2.227 1.732 7.752-3.216 6.35-5.442-1.402-2.227-13.936-11.462-16.162-9.648z"/></g><g><path fill="#472e38" d="M1289.73 209.605c.247-1.979-14.843-4.04-17.647-3.71-2.804.33-3.216 7.75-.66 8.328 2.557.577 17.977-1.732 18.307-4.618z"/></g><g><path fill="#472e38" d="M1301.027 210.512c-.248 1.98 14.842 4.04 17.646 3.711 2.804-.33 3.216-7.751.66-8.328-2.639-.578-17.977 1.814-18.306 4.617z"/></g><g><path fill="#472e38" d="M1291.049 213.728c-1.237-1.566-13.359 7.587-15.09 9.813-1.732 2.226 3.216 7.751 5.442 6.35 2.227-1.402 11.462-13.936 9.648-16.163z"/></g><g><path fill="#472e38" d="M1299.707 206.39c1.237 1.566 13.359-7.587 15.09-9.814 1.732-2.226-3.215-7.75-5.442-6.349-2.226 1.402-11.462 13.936-9.648 16.162z"/></g></g><g><path fill="#d3b608" d="M1242.645 96.882c2.309 4.618 2.226 12.534-2.969 14.019-5.195 1.484-41.395 3.71-48.734.742-7.421-2.969-17.728-40.653-12.534-42.797 5.195-2.227 21.44-4.453 27.295-2.227 5.937 2.144 33.973 24.326 36.942 30.263z"/></g><g><path fill="#5c6e94" d="M1675.643 193.608c5.112-.907 11.462 1.402 15.585 4.535 1.072.825.082 2.721-1.155 1.897-2.391-1.567-4.947-2.31-7.751-2.969-2.391-.495-4.7-.577-6.927-1.567-.824-.33-.577-1.731.248-1.896z"/></g><g><path fill="#5c6e94" d="M1662.696 193.195c2.062-.66 4.618-.412 6.68.165.824.248.907 1.567 0 1.815-2.062.494-4.7.577-6.68-.248-.824-.247-.907-1.402 0-1.732z"/></g><g><path fill="#ae9604" d="M1178.408 68.763c.66-.247 1.485-.577 2.392-.824 1.567 6.267 5.36 12.121 9.73 16.987 12.37 13.77 29.52 23.006 47.744 26.222-8.41 1.484-40.405 3.216-47.332.412-7.339-2.886-17.729-40.57-12.534-42.797z"/></g><g><g><path fill="#f48120" d="M1191.272 139.844c9.4-2.721 13.606 33.726 6.102 36.86"/></g><g><path fill="#f16522" d="M1191.025 170.024c.082 0 .082 0 0 0 2.061.083 4.288-.66 5.442-2.473.66-.99.907-2.227 1.072-3.464 1.32-8.328-.412-17.151-4.535-24.243 8.163 1.897 11.38 33.974 4.37 36.942-2.309.907-4.617-2.061-6.35-6.762z"/></g><g><path fill="#fcb912" d="M1190.283 143.307c.165-.33.742-.165.66.165-.248 3.216-.33 6.432-.413 9.73 0 .743-.99.908-1.237.165-.824-3.298-.412-6.926.99-10.06z"/></g><g><path fill="#fcb912" d="M1190.448 156.171c.165 1.155.494 2.144.247 3.299-.082.494-.66.494-.907.165-.66-.99-.577-2.227-.577-3.381-.083-.99 1.154-.99 1.237-.083z"/></g></g><g><path fill="#5c6e94" d="M1366.17 9.887c8.823-2.474 62.834 3.298 82.46 11.627 19.708 8.41 105.879 88.314 103.405 95.653-2.474 7.092-178.279 4.453-183.886 3.463-5.525-1.072-7.504-109.176-1.979-110.743z"/></g><g><path fill="#272727" fill-opacity=".45" d="M1370.458 12.03c8.328-2.308 54.424 3.464 73.06 11.215 18.636 7.834 103.075 83.615 100.683 90.459-2.309 6.597-166.569 2.474-171.847 1.485-5.277-.99-7.174-101.674-1.896-103.158z"/></g><g><path fill="#5c6e94" d="M1358.006 9.722c4.206.99 3.629 106.786-.412 110.084-3.958 3.299-84.192 4.453-90.129 2.062-6.02-2.474 29.109-85.182 44.694-98.623 15.502-13.523 42.22-14.348 45.847-13.523z"/></g><g><path fill="#444e63" d="M1353.224 13.763c3.628.824 3.133 96.725-.33 99.694-3.463 2.969-72.647 4.04-77.76 1.814-5.195-2.227 25.15-77.183 38.509-89.387 13.441-12.121 36.447-12.864 39.58-12.121z"/></g><g><path fill="#272727" fill-opacity=".83" d="M1372.355 115.189c-5.277-.99-7.174-101.674-1.897-103.158 3.05-.825 11.05-.577 20.863.412-7.504 18.471-5.278 40.9 6.267 57.228 6.679 9.4 15.915 16.656 25.398 23.17 8.905 6.103 18.47 11.875 29.107 13.524 10.473 1.65 21.11-.66 31.748-.907 6.596-.165 13.358.495 19.708-1.32 5.772-1.648 10.802-5.277 15.997-8.08 2.391-1.32 4.783-2.392 7.256-3.464 10.885 10.803 18.059 19.214 17.317 21.276-2.227 6.514-166.57 2.308-171.764 1.319z"/></g><g><path fill="#2c2e31" d="M1307.788 98.284c9.236-2.804 18.471-6.844 24.573-14.348 7.67-9.318 8.906-22.264 9.153-34.386.248-11.71-.577-24.16-6.596-34.056 8.905-2.144 16.657-2.226 18.306-1.814 3.628.825 3.133 96.726-.33 99.694-3.463 2.968-72.647 4.04-77.76 1.814-1.32-.577-.247-6.184 2.309-14.348 9.813 1.98 20.533.413 30.345-2.556z"/></g><g><path fill="#f6fbfd" d="M1460.504 40.397c3.876 2.144 6.927 6.102 10.143 9.07 3.958 3.711 8.41 7.092 12.04 11.133.824.824-.166 2.144-1.238 1.649-4.37-2.391-8.41-5.772-12.286-8.906-3.794-3.05-8.576-6.184-11.215-10.307-1.072-1.65.99-3.546 2.556-2.639z"/></g><g><path fill="#f6fbfd" d="M1444.26 29.842c4.123-.66 8.658 3.216 11.297 5.937 1.649 1.815-.825 4.206-2.639 2.64-1.484-1.238-3.05-2.31-4.7-3.3-1.567-.906-3.381-1.319-4.7-2.638-.825-.742-.578-2.474.742-2.639z"/></g><g><path fill="#f6fbfd" d="M1296.739 64.063c1.154-5.525 4.535-10.555 6.926-15.585 2.721-5.69 5.03-11.627 8.164-17.07.66-1.071 2.391-.329 2.061.825-1.484 5.443-3.875 10.72-6.102 15.915-2.473 5.772-4.453 12.534-8.493 17.4-1.072 1.236-2.886-.166-2.556-1.485z"/></g><g><path fill="#f6fbfd" d="M1291.214 75.278c.824-1.897 1.896-3.876 3.546-5.113.824-.577 2.226.165 2.061 1.237-.247 2.391-2.061 4.288-4.04 5.525-1.072.66-1.98-.66-1.567-1.65z"/></g><g><path fill="#b6e4f9" d="M1655.605 132.918c5.607 2.39 20.038 19.707 19.213 27.789-.742 8.08-42.714-18.554-44.363-24.656-1.65-6.102 18.388-6.02 25.15-3.133z"/></g><g><path fill="#464646" d="M1630.455 136.05c-.743-2.638 2.638-4.122 7.256-4.7 3.463 5.608 4.7 8.659 16.657 17.812 10.225 7.834 16.41 6.597 19.213 5.442.907 2.227 1.484 4.37 1.32 6.02-.825 8.164-42.797-18.471-44.446-24.573z"/></g><g><path fill="#f6fbfd" d="M1659.233 138.772c1.732.577 2.804 2.474 3.876 3.875a39.645 39.645 0 0 1 3.71 5.443c.33.577-.494 1.237-.907.742-1.401-1.567-2.803-3.051-4.288-4.618-1.154-1.237-3.05-2.556-3.463-4.288-.247-.742.412-1.402 1.072-1.154z"/></g><g><path fill="#f6fbfd" d="M1652.636 133.907c1.65.082 2.722 1.237 3.793 2.391.743.825-.33 1.897-1.236 1.237-1.072-.824-2.31-1.402-3.134-2.556-.33-.412.083-1.072.577-1.072z"/></g><g><path fill="#5c6e94" d="M1557.313 126.98c.164-1.32 1.896-1.32 2.061 0 1.732 14.843 1.732 31.335.66 46.26 0 .083-.083.165-.083.165 0 .165-.082.248-.082.413 0 .082-.083.164-.165.247-.083.082-.165.165-.165.247-.083.083-.165.165-.33.248-.082 0-.082.082-.165.082-.165.083-.247.083-.412.165h-.495a.63.63 0 0 1-.412-.165c-.083 0-.083 0-.165-.082-.083-.083-.248-.165-.33-.248-.082-.082-.165-.165-.165-.247-.082-.083-.082-.165-.165-.247-.082-.083-.082-.248-.082-.413 0-.082-.083-.082-.083-.165-1.154-14.842-1.154-31.334.578-46.26z"/></g><g><path fill="#5c6e94" d="M1361.882 126.98c.165-1.32 1.897-1.32 2.062 0 1.731 14.843 1.731 31.335.66 46.26 0 .083-.083.165-.083.165 0 .165-.083.248-.083.413 0 .082-.082.164-.165.247-.082.082-.164.165-.164.247-.083.083-.165.165-.33.248-.083 0-.083.082-.165.082-.165.083-.248.083-.413.165h-.494a.63.63 0 0 1-.413-.165c-.082 0-.082 0-.164-.082-.083-.083-.248-.165-.33-.248-.083-.082-.165-.165-.165-.247-.083-.083-.083-.165-.165-.247-.083-.083-.083-.248-.083-.413 0-.082-.082-.082-.082-.165-1.237-14.842-1.155-31.334.577-46.26z"/></g><g><path fill="#533741" d="M1601.016 130.938c1.155-.082 1.65.495 2.392 1.237l2.72 2.969c1.073 1.236 3.382 3.216 3.052 4.947-.083.248-.33.495-.577.495-.907 0-1.32-.412-1.98-1.072-.824-.825-1.649-1.567-2.473-2.309-.825-.742-1.65-1.567-2.474-2.309-.907-.824-1.814-1.32-1.732-2.721-.082-.742.33-1.154 1.072-1.237z"/></g><g><path fill="#533741" d="M1591.698 129.949c2.227-.248 4.453 3.05 5.773 4.452 2.061 2.062 4.37 4.288 5.854 6.845.413.742-.495 1.731-1.237 1.236-2.226-1.484-4.123-3.628-6.102-5.442-1.649-1.484-4.865-3.298-5.36-5.69-.165-.824.33-1.319 1.072-1.401z"/></g><g><path fill="#533741" d="M1583.947 130.69c2.474.578 4.288 2.887 6.02 4.618 1.896 1.98 3.628 4.206 5.525 6.185.577.577 0 1.732-.825 1.484-2.391-.742-3.958-2.803-5.607-4.535-1.98-1.98-5.03-3.71-6.267-6.185-.495-.824.247-1.814 1.154-1.566z"/></g><g><path fill="#533741" d="M1575.536 130.69c2.474 1.32 4.288 3.547 6.267 5.526 1.897 1.896 4.04 3.793 5.607 6.102.495.824-.494 1.731-1.319 1.319-2.391-1.402-4.37-3.463-6.432-5.277-2.061-1.815-4.37-3.546-5.854-5.938-.66-1.072.66-2.308 1.731-1.731z"/></g><g><path fill="#96a1d1" d="M1475.347 34.378c5.113 2.72 9.236 6.596 13.606 10.307 4.7 3.958 9.483 7.834 13.77 12.122.578.577-.164 1.649-.906 1.237-4.7-2.969-9.07-6.432-13.441-9.813-4.948-3.876-10.143-7.422-14.266-12.204-.742-.907.165-2.144 1.237-1.65z"/></g><g><path fill="#96a1d1" d="M1462.236 25.884c1.732.495 3.134 1.237 4.618 2.309 1.567 1.072 3.298 2.144 4.618 3.628.577.66 0 1.732-.825 1.485-1.65-.495-3.134-1.402-4.535-2.31-1.814-1.071-3.299-1.978-4.618-3.545-.66-.742-.165-1.814.742-1.567z"/></g><g><path fill="#96a1d1" d="M1610.83 122.94c6.266 0 14.017 1.401 19.625 4.205.824.412.412 1.732-.495 1.732-2.886-.083-5.69-.907-8.576-1.485-3.628-.742-7.339-1.154-10.967-2.226-1.155-.33-.907-2.226.412-2.226z"/></g><g><path fill="#96a1d1" d="M1596.399 121.125c2.638-.082 5.112.248 7.586 1.155.824.33.66 1.484-.165 1.484-2.639.165-5.113-.165-7.669-.907-.99-.247-.824-1.65.248-1.732z"/></g><g><path fill="#96a1d1" d="M1204.218 71.65c7.587 3.215 14.596 8.988 19.956 15.255 1.237 1.484-.66 3.298-2.062 2.061-6.267-5.195-12.946-9.895-19.13-15.172-.99-.743 0-2.64 1.236-2.144z"/></g><g><path fill="#96a1d1" d="M1194.983 69.176c1.896-.907 3.793-.33 5.36.99.99.824-.083 2.39-1.237 2.06-1.402-.412-2.886-.741-4.206-1.566-.494-.33-.577-1.237.083-1.484z"/></g><g><path fill="#96a1d1" d="M1297.563 32.481c2.886-6.762 8.411-12.204 14.43-16.492.66-.495 1.403.577.908 1.154-5.03 5.195-9.153 11.05-13.771 16.575-.742.907-1.979-.248-1.567-1.237z"/></g><g><path fill="#96a1d1" d="M1294.018 38.995c.742-1.072 2.803-.494 2.308.99-1.072 2.556-2.391 4.865-4.205 7.009-.66.742-1.814 0-1.567-.907.66-2.639 1.814-4.948 3.464-7.092z"/></g><g><path fill="#5c6e94" d="M1246.356 135.226c4.947 1.98 9.482 4.948 14.183 7.422 5.277 2.803 10.72 5.195 15.997 7.833 1.237.577.33 2.557-.907 2.144-10.39-3.38-22.1-8.08-30.675-14.925-1.237-.907 0-3.051 1.402-2.474z"/></g><g><path fill="#5c6e94" d="M1231.925 127.97c1.897.742 3.463 1.566 5.113 2.72 1.731 1.155.164 3.876-1.65 2.804-1.731-1.072-3.133-2.226-4.535-3.628-.742-.742 0-2.309 1.072-1.896z"/></g><g><path fill="#5c6e94" d="M1574.547 109.828c-3.464-8.41-10.06-9.235-19.131-8.905-4.865.165-3.71 24.243 1.896 24.243 8 0 23.914 1.072 17.235-15.338z"/></g><g><path fill="#455473" d="M1568.032 115.766c3.958-4.37 3.216-9.978-1.814-14.019 3.628 1.072 6.515 3.464 8.411 8.081 6.68 16.328-9.318 15.338-17.234 15.338-1.237 0-2.226-1.072-2.969-2.886 5.69-1.072 10.803-3.381 13.606-6.514z"/></g><g><path fill="#6e83b1" d="M1556.24 104.386c.248-.412 1.155-.495 1.485-.082.824.907.824 2.061.99 3.133.247 1.237.412 2.309.082 3.546-.248.66-1.65.495-1.98 0-.576-.99-.659-1.98-.741-3.051-.083-1.155-.413-2.392.164-3.546z"/></g><g><path fill="#6e83b1" d="M1556.405 114.529c.165-.413.99-.413 1.32-.083.907.742 1.154 2.227.247 3.051-.33.248-1.154.33-1.402 0-.66-.824-.66-2.144-.165-2.968z"/></g></g></g></g></g></svg>